<mxfile host="app.diagrams.net" modified="2024-03-20T01:30:56.622Z" agent="Mozilla/5.0 (Windows NT 10.0; Win64; x64) AppleWebKit/537.36 (KHTML, like Gecko) Chrome/122.0.0.0 Safari/537.36" etag="g9kvkjG5tMbtGCzQmVKW" version="24.0.7" type="google">
  <diagram name="Page-1" id="9f46799a-70d6-7492-0946-bef42562c5a5">
    <mxGraphModel grid="1" page="1" gridSize="10" guides="1" tooltips="1" connect="1" arrows="1" fold="1" pageScale="1" pageWidth="1100" pageHeight="850" background="none" math="0" shadow="0">
      <root>
        <mxCell id="0" />
        <mxCell id="1" parent="0" />
        <mxCell id="78961159f06e98e8-30" value="Personagem" style="swimlane;html=1;fontStyle=1;align=center;verticalAlign=top;childLayout=stackLayout;horizontal=1;startSize=26;horizontalStack=0;resizeParent=1;resizeLast=0;collapsible=1;marginBottom=0;swimlaneFillColor=#ffffff;rounded=0;shadow=0;comic=0;labelBackgroundColor=none;strokeWidth=1;fillColor=none;fontFamily=Verdana;fontSize=12" vertex="1" parent="1">
          <mxGeometry x="-380" y="800" width="160" height="317" as="geometry" />
        </mxCell>
        <mxCell id="78961159f06e98e8-31" value="+ classe: enum()" style="text;html=1;strokeColor=none;fillColor=none;align=left;verticalAlign=top;spacingLeft=4;spacingRight=4;whiteSpace=wrap;overflow=hidden;rotatable=0;points=[[0,0.5],[1,0.5]];portConstraint=eastwest;" vertex="1" parent="78961159f06e98e8-30">
          <mxGeometry y="26" width="160" height="26" as="geometry" />
        </mxCell>
        <mxCell id="78961159f06e98e8-32" value="+ nivel: int" style="text;html=1;strokeColor=none;fillColor=none;align=left;verticalAlign=top;spacingLeft=4;spacingRight=4;whiteSpace=wrap;overflow=hidden;rotatable=0;points=[[0,0.5],[1,0.5]];portConstraint=eastwest;" vertex="1" parent="78961159f06e98e8-30">
          <mxGeometry y="52" width="160" height="26" as="geometry" />
        </mxCell>
        <mxCell id="78961159f06e98e8-33" value="+ antecedente: String" style="text;html=1;strokeColor=none;fillColor=none;align=left;verticalAlign=top;spacingLeft=4;spacingRight=4;whiteSpace=wrap;overflow=hidden;rotatable=0;points=[[0,0.5],[1,0.5]];portConstraint=eastwest;" vertex="1" parent="78961159f06e98e8-30">
          <mxGeometry y="78" width="160" height="26" as="geometry" />
        </mxCell>
        <mxCell id="78961159f06e98e8-34" value="+ nome_jogador: String" style="text;html=1;strokeColor=none;fillColor=none;align=left;verticalAlign=top;spacingLeft=4;spacingRight=4;whiteSpace=wrap;overflow=hidden;rotatable=0;points=[[0,0.5],[1,0.5]];portConstraint=eastwest;" vertex="1" parent="78961159f06e98e8-30">
          <mxGeometry y="104" width="160" height="26" as="geometry" />
        </mxCell>
        <mxCell id="78961159f06e98e8-36" value="+ raca: enum()" style="text;html=1;strokeColor=none;fillColor=none;align=left;verticalAlign=top;spacingLeft=4;spacingRight=4;whiteSpace=wrap;overflow=hidden;rotatable=0;points=[[0,0.5],[1,0.5]];portConstraint=eastwest;" vertex="1" parent="78961159f06e98e8-30">
          <mxGeometry y="130" width="160" height="26" as="geometry" />
        </mxCell>
        <mxCell id="78961159f06e98e8-37" value="+ tendencia: enum()" style="text;html=1;strokeColor=none;fillColor=none;align=left;verticalAlign=top;spacingLeft=4;spacingRight=4;whiteSpace=wrap;overflow=hidden;rotatable=0;points=[[0,0.5],[1,0.5]];portConstraint=eastwest;" vertex="1" parent="78961159f06e98e8-30">
          <mxGeometry y="156" width="160" height="26" as="geometry" />
        </mxCell>
        <mxCell id="40sNHgsJl3ilRhZVSbIt-1" value="+ xp: int" style="text;html=1;strokeColor=none;fillColor=none;align=left;verticalAlign=top;spacingLeft=4;spacingRight=4;whiteSpace=wrap;overflow=hidden;rotatable=0;points=[[0,0.5],[1,0.5]];portConstraint=eastwest;" vertex="1" parent="78961159f06e98e8-30">
          <mxGeometry y="182" width="160" height="26" as="geometry" />
        </mxCell>
        <mxCell id="78961159f06e98e8-38" value="" style="line;html=1;strokeWidth=1;fillColor=none;align=left;verticalAlign=middle;spacingTop=-1;spacingLeft=3;spacingRight=3;rotatable=0;labelPosition=right;points=[];portConstraint=eastwest;" vertex="1" parent="78961159f06e98e8-30">
          <mxGeometry y="208" width="160" height="8" as="geometry" />
        </mxCell>
        <mxCell id="78961159f06e98e8-42" value="+ method(type): type" style="text;html=1;strokeColor=none;fillColor=none;align=left;verticalAlign=top;spacingLeft=4;spacingRight=4;whiteSpace=wrap;overflow=hidden;rotatable=0;points=[[0,0.5],[1,0.5]];portConstraint=eastwest;" vertex="1" parent="78961159f06e98e8-30">
          <mxGeometry y="216" width="160" height="26" as="geometry" />
        </mxCell>
        <mxCell id="78961159f06e98e8-40" value="+ method(type): type" style="text;html=1;strokeColor=none;fillColor=none;align=left;verticalAlign=top;spacingLeft=4;spacingRight=4;whiteSpace=wrap;overflow=hidden;rotatable=0;points=[[0,0.5],[1,0.5]];portConstraint=eastwest;" vertex="1" parent="78961159f06e98e8-30">
          <mxGeometry y="242" width="160" height="30" as="geometry" />
        </mxCell>
        <mxCell id="78961159f06e98e8-39" value="+ method(type): type" style="text;html=1;strokeColor=none;fillColor=none;align=left;verticalAlign=top;spacingLeft=4;spacingRight=4;whiteSpace=wrap;overflow=hidden;rotatable=0;points=[[0,0.5],[1,0.5]];portConstraint=eastwest;" vertex="1" parent="78961159f06e98e8-30">
          <mxGeometry y="272" width="160" height="26" as="geometry" />
        </mxCell>
        <mxCell id="78961159f06e98e8-43" value="&lt;i&gt;ModificadorDeHabilidade&amp;nbsp;&lt;/i&gt;" style="swimlane;html=1;fontStyle=1;align=center;verticalAlign=top;childLayout=stackLayout;horizontal=1;startSize=30;horizontalStack=0;resizeParent=1;resizeLast=0;collapsible=1;marginBottom=0;swimlaneFillColor=#ffffff;rounded=0;shadow=0;comic=0;labelBackgroundColor=none;strokeWidth=1;fillColor=none;fontFamily=Verdana;fontSize=12" vertex="1" parent="1">
          <mxGeometry x="-400" y="40" width="200" height="260" as="geometry" />
        </mxCell>
        <mxCell id="78961159f06e98e8-44" value="+ inspiracao: static int" style="text;html=1;strokeColor=none;fillColor=none;align=left;verticalAlign=top;spacingLeft=4;spacingRight=4;whiteSpace=wrap;overflow=hidden;rotatable=0;points=[[0,0.5],[1,0.5]];portConstraint=eastwest;" vertex="1" parent="78961159f06e98e8-43">
          <mxGeometry y="30" width="200" height="26" as="geometry" />
        </mxCell>
        <mxCell id="v30PAA55jN4DHyw-bM3n-83" value="+ bonusDeProficiencia: static int" style="text;html=1;strokeColor=none;fillColor=none;align=left;verticalAlign=top;spacingLeft=4;spacingRight=4;whiteSpace=wrap;overflow=hidden;rotatable=0;points=[[0,0.5],[1,0.5]];portConstraint=eastwest;" vertex="1" parent="78961159f06e98e8-43">
          <mxGeometry y="56" width="200" height="26" as="geometry" />
        </mxCell>
        <mxCell id="v30PAA55jN4DHyw-bM3n-13" value="+ nome: String" style="text;html=1;strokeColor=none;fillColor=none;align=left;verticalAlign=top;spacingLeft=4;spacingRight=4;whiteSpace=wrap;overflow=hidden;rotatable=0;points=[[0,0.5],[1,0.5]];portConstraint=eastwest;" vertex="1" parent="78961159f06e98e8-43">
          <mxGeometry y="82" width="200" height="26" as="geometry" />
        </mxCell>
        <mxCell id="78961159f06e98e8-45" value="+ pontos: int" style="text;html=1;strokeColor=none;fillColor=none;align=left;verticalAlign=top;spacingLeft=4;spacingRight=4;whiteSpace=wrap;overflow=hidden;rotatable=0;points=[[0,0.5],[1,0.5]];portConstraint=eastwest;" vertex="1" parent="78961159f06e98e8-43">
          <mxGeometry y="108" width="200" height="26" as="geometry" />
        </mxCell>
        <mxCell id="v30PAA55jN4DHyw-bM3n-11" value="+ testeDeResistencia: boolean" style="text;html=1;strokeColor=none;fillColor=none;align=left;verticalAlign=top;spacingLeft=4;spacingRight=4;whiteSpace=wrap;overflow=hidden;rotatable=0;points=[[0,0.5],[1,0.5]];portConstraint=eastwest;" vertex="1" parent="78961159f06e98e8-43">
          <mxGeometry y="134" width="200" height="26" as="geometry" />
        </mxCell>
        <mxCell id="78961159f06e98e8-51" value="" style="line;html=1;strokeWidth=1;fillColor=none;align=left;verticalAlign=middle;spacingTop=-1;spacingLeft=3;spacingRight=3;rotatable=0;labelPosition=right;points=[];portConstraint=eastwest;" vertex="1" parent="78961159f06e98e8-43">
          <mxGeometry y="160" width="200" height="8" as="geometry" />
        </mxCell>
        <mxCell id="78961159f06e98e8-52" value="+ addPontos(int): int" style="text;html=1;strokeColor=none;fillColor=none;align=left;verticalAlign=top;spacingLeft=4;spacingRight=4;whiteSpace=wrap;overflow=hidden;rotatable=0;points=[[0,0.5],[1,0.5]];portConstraint=eastwest;" vertex="1" parent="78961159f06e98e8-43">
          <mxGeometry y="168" width="200" height="26" as="geometry" />
        </mxCell>
        <mxCell id="78961159f06e98e8-53" value="+ getModificador(): int" style="text;html=1;strokeColor=none;fillColor=none;align=left;verticalAlign=top;spacingLeft=4;spacingRight=4;whiteSpace=wrap;overflow=hidden;rotatable=0;points=[[0,0.5],[1,0.5]];portConstraint=eastwest;" vertex="1" parent="78961159f06e98e8-43">
          <mxGeometry y="194" width="200" height="26" as="geometry" />
        </mxCell>
        <mxCell id="v30PAA55jN4DHyw-bM3n-12" value="+ getValorTesteDeResistencia(): int" style="text;html=1;strokeColor=none;fillColor=none;align=left;verticalAlign=top;spacingLeft=4;spacingRight=4;whiteSpace=wrap;overflow=hidden;rotatable=0;points=[[0,0.5],[1,0.5]];portConstraint=eastwest;" vertex="1" parent="78961159f06e98e8-43">
          <mxGeometry y="220" width="200" height="26" as="geometry" />
        </mxCell>
        <mxCell id="78961159f06e98e8-82" value="Forca" style="swimlane;html=1;fontStyle=1;align=center;verticalAlign=top;childLayout=stackLayout;horizontal=1;startSize=30;horizontalStack=0;resizeParent=1;resizeLast=0;collapsible=1;marginBottom=0;swimlaneFillColor=#ffffff;rounded=0;shadow=0;comic=0;labelBackgroundColor=none;strokeWidth=1;fillColor=none;fontFamily=Verdana;fontSize=12" vertex="1" parent="1">
          <mxGeometry x="-1000" y="400" width="200" height="100" as="geometry" />
        </mxCell>
        <mxCell id="78961159f06e98e8-83" value="+ atletismo: boolean" style="text;html=1;strokeColor=none;fillColor=none;align=left;verticalAlign=top;spacingLeft=4;spacingRight=4;whiteSpace=wrap;overflow=hidden;rotatable=0;points=[[0,0.5],[1,0.5]];portConstraint=eastwest;" vertex="1" parent="78961159f06e98e8-82">
          <mxGeometry y="30" width="200" height="26" as="geometry" />
        </mxCell>
        <mxCell id="78961159f06e98e8-90" value="" style="line;html=1;strokeWidth=1;fillColor=none;align=left;verticalAlign=middle;spacingTop=-1;spacingLeft=3;spacingRight=3;rotatable=0;labelPosition=right;points=[];portConstraint=eastwest;" vertex="1" parent="78961159f06e98e8-82">
          <mxGeometry y="56" width="200" height="8" as="geometry" />
        </mxCell>
        <mxCell id="78961159f06e98e8-91" value="+ getAtletismoValor(): int" style="text;html=1;strokeColor=none;fillColor=none;align=left;verticalAlign=top;spacingLeft=4;spacingRight=4;whiteSpace=wrap;overflow=hidden;rotatable=0;points=[[0,0.5],[1,0.5]];portConstraint=eastwest;" vertex="1" parent="78961159f06e98e8-82">
          <mxGeometry y="64" width="200" height="26" as="geometry" />
        </mxCell>
        <mxCell id="v30PAA55jN4DHyw-bM3n-3" value="Constituicao" style="swimlane;html=1;fontStyle=1;align=center;verticalAlign=top;childLayout=stackLayout;horizontal=1;startSize=30;horizontalStack=0;resizeParent=1;resizeLast=0;collapsible=1;marginBottom=0;swimlaneFillColor=#ffffff;rounded=0;shadow=0;comic=0;labelBackgroundColor=none;strokeWidth=1;fillColor=none;fontFamily=Verdana;fontSize=12" vertex="1" parent="1">
          <mxGeometry x="-520" y="400" width="200" height="50" as="geometry" />
        </mxCell>
        <mxCell id="v30PAA55jN4DHyw-bM3n-14" value="Destreza" style="swimlane;html=1;fontStyle=1;align=center;verticalAlign=top;childLayout=stackLayout;horizontal=1;startSize=30;horizontalStack=0;resizeParent=1;resizeLast=0;collapsible=1;marginBottom=0;swimlaneFillColor=#ffffff;rounded=0;shadow=0;comic=0;labelBackgroundColor=none;strokeWidth=1;fillColor=none;fontFamily=Verdana;fontSize=12" vertex="1" parent="1">
          <mxGeometry x="-760" y="400" width="200" height="200" as="geometry" />
        </mxCell>
        <mxCell id="v30PAA55jN4DHyw-bM3n-15" value="+ acrobacia: boolean" style="text;html=1;strokeColor=none;fillColor=none;align=left;verticalAlign=top;spacingLeft=4;spacingRight=4;whiteSpace=wrap;overflow=hidden;rotatable=0;points=[[0,0.5],[1,0.5]];portConstraint=eastwest;" vertex="1" parent="v30PAA55jN4DHyw-bM3n-14">
          <mxGeometry y="30" width="200" height="26" as="geometry" />
        </mxCell>
        <mxCell id="v30PAA55jN4DHyw-bM3n-16" value="+ furtividade: boolean" style="text;html=1;strokeColor=none;fillColor=none;align=left;verticalAlign=top;spacingLeft=4;spacingRight=4;whiteSpace=wrap;overflow=hidden;rotatable=0;points=[[0,0.5],[1,0.5]];portConstraint=eastwest;" vertex="1" parent="v30PAA55jN4DHyw-bM3n-14">
          <mxGeometry y="56" width="200" height="26" as="geometry" />
        </mxCell>
        <mxCell id="v30PAA55jN4DHyw-bM3n-17" value="+ prestidigitacao: boolean" style="text;html=1;strokeColor=none;fillColor=none;align=left;verticalAlign=top;spacingLeft=4;spacingRight=4;whiteSpace=wrap;overflow=hidden;rotatable=0;points=[[0,0.5],[1,0.5]];portConstraint=eastwest;" vertex="1" parent="v30PAA55jN4DHyw-bM3n-14">
          <mxGeometry y="82" width="200" height="26" as="geometry" />
        </mxCell>
        <mxCell id="v30PAA55jN4DHyw-bM3n-22" value="" style="line;html=1;strokeWidth=1;fillColor=none;align=left;verticalAlign=middle;spacingTop=-1;spacingLeft=3;spacingRight=3;rotatable=0;labelPosition=right;points=[];portConstraint=eastwest;" vertex="1" parent="v30PAA55jN4DHyw-bM3n-14">
          <mxGeometry y="108" width="200" height="8" as="geometry" />
        </mxCell>
        <mxCell id="v30PAA55jN4DHyw-bM3n-23" value="+ getAtletismoValor(): int" style="text;html=1;strokeColor=none;fillColor=none;align=left;verticalAlign=top;spacingLeft=4;spacingRight=4;whiteSpace=wrap;overflow=hidden;rotatable=0;points=[[0,0.5],[1,0.5]];portConstraint=eastwest;" vertex="1" parent="v30PAA55jN4DHyw-bM3n-14">
          <mxGeometry y="116" width="200" height="26" as="geometry" />
        </mxCell>
        <mxCell id="v30PAA55jN4DHyw-bM3n-25" value="+ getFurtividadeValor(): int" style="text;html=1;strokeColor=none;fillColor=none;align=left;verticalAlign=top;spacingLeft=4;spacingRight=4;whiteSpace=wrap;overflow=hidden;rotatable=0;points=[[0,0.5],[1,0.5]];portConstraint=eastwest;" vertex="1" parent="v30PAA55jN4DHyw-bM3n-14">
          <mxGeometry y="142" width="200" height="26" as="geometry" />
        </mxCell>
        <mxCell id="v30PAA55jN4DHyw-bM3n-24" value="+ getPrestidigitacaoValor(): type" style="text;html=1;strokeColor=none;fillColor=none;align=left;verticalAlign=top;spacingLeft=4;spacingRight=4;whiteSpace=wrap;overflow=hidden;rotatable=0;points=[[0,0.5],[1,0.5]];portConstraint=eastwest;" vertex="1" parent="v30PAA55jN4DHyw-bM3n-14">
          <mxGeometry y="168" width="200" height="26" as="geometry" />
        </mxCell>
        <mxCell id="v30PAA55jN4DHyw-bM3n-38" value="Inteligencia" style="swimlane;html=1;fontStyle=1;align=center;verticalAlign=top;childLayout=stackLayout;horizontal=1;startSize=30;horizontalStack=0;resizeParent=1;resizeLast=0;collapsible=1;marginBottom=0;swimlaneFillColor=#ffffff;rounded=0;shadow=0;comic=0;labelBackgroundColor=none;strokeWidth=1;fillColor=none;fontFamily=Verdana;fontSize=12" vertex="1" parent="1">
          <mxGeometry x="-280" y="400" width="200" height="310" as="geometry" />
        </mxCell>
        <mxCell id="v30PAA55jN4DHyw-bM3n-39" value="+ arcanismo: boolean" style="text;html=1;strokeColor=none;fillColor=none;align=left;verticalAlign=top;spacingLeft=4;spacingRight=4;whiteSpace=wrap;overflow=hidden;rotatable=0;points=[[0,0.5],[1,0.5]];portConstraint=eastwest;" vertex="1" parent="v30PAA55jN4DHyw-bM3n-38">
          <mxGeometry y="30" width="200" height="26" as="geometry" />
        </mxCell>
        <mxCell id="v30PAA55jN4DHyw-bM3n-40" value="+ historia: boolean" style="text;html=1;strokeColor=none;fillColor=none;align=left;verticalAlign=top;spacingLeft=4;spacingRight=4;whiteSpace=wrap;overflow=hidden;rotatable=0;points=[[0,0.5],[1,0.5]];portConstraint=eastwest;" vertex="1" parent="v30PAA55jN4DHyw-bM3n-38">
          <mxGeometry y="56" width="200" height="26" as="geometry" />
        </mxCell>
        <mxCell id="v30PAA55jN4DHyw-bM3n-41" value="+ investigacao: boolean" style="text;html=1;strokeColor=none;fillColor=none;align=left;verticalAlign=top;spacingLeft=4;spacingRight=4;whiteSpace=wrap;overflow=hidden;rotatable=0;points=[[0,0.5],[1,0.5]];portConstraint=eastwest;" vertex="1" parent="v30PAA55jN4DHyw-bM3n-38">
          <mxGeometry y="82" width="200" height="26" as="geometry" />
        </mxCell>
        <mxCell id="v30PAA55jN4DHyw-bM3n-42" value="+ natureza: boolean" style="text;html=1;strokeColor=none;fillColor=none;align=left;verticalAlign=top;spacingLeft=4;spacingRight=4;whiteSpace=wrap;overflow=hidden;rotatable=0;points=[[0,0.5],[1,0.5]];portConstraint=eastwest;" vertex="1" parent="v30PAA55jN4DHyw-bM3n-38">
          <mxGeometry y="108" width="200" height="26" as="geometry" />
        </mxCell>
        <mxCell id="v30PAA55jN4DHyw-bM3n-43" value="+ religiao: boolean" style="text;html=1;strokeColor=none;fillColor=none;align=left;verticalAlign=top;spacingLeft=4;spacingRight=4;whiteSpace=wrap;overflow=hidden;rotatable=0;points=[[0,0.5],[1,0.5]];portConstraint=eastwest;" vertex="1" parent="v30PAA55jN4DHyw-bM3n-38">
          <mxGeometry y="134" width="200" height="26" as="geometry" />
        </mxCell>
        <mxCell id="v30PAA55jN4DHyw-bM3n-46" value="" style="line;html=1;strokeWidth=1;fillColor=none;align=left;verticalAlign=middle;spacingTop=-1;spacingLeft=3;spacingRight=3;rotatable=0;labelPosition=right;points=[];portConstraint=eastwest;" vertex="1" parent="v30PAA55jN4DHyw-bM3n-38">
          <mxGeometry y="160" width="200" height="8" as="geometry" />
        </mxCell>
        <mxCell id="v30PAA55jN4DHyw-bM3n-47" value="+ getArcanismoValor(): int" style="text;html=1;strokeColor=none;fillColor=none;align=left;verticalAlign=top;spacingLeft=4;spacingRight=4;whiteSpace=wrap;overflow=hidden;rotatable=0;points=[[0,0.5],[1,0.5]];portConstraint=eastwest;" vertex="1" parent="v30PAA55jN4DHyw-bM3n-38">
          <mxGeometry y="168" width="200" height="26" as="geometry" />
        </mxCell>
        <mxCell id="v30PAA55jN4DHyw-bM3n-48" value="+ getHistoriaValor(): int" style="text;html=1;strokeColor=none;fillColor=none;align=left;verticalAlign=top;spacingLeft=4;spacingRight=4;whiteSpace=wrap;overflow=hidden;rotatable=0;points=[[0,0.5],[1,0.5]];portConstraint=eastwest;" vertex="1" parent="v30PAA55jN4DHyw-bM3n-38">
          <mxGeometry y="194" width="200" height="26" as="geometry" />
        </mxCell>
        <mxCell id="v30PAA55jN4DHyw-bM3n-51" value="+ getInvestigacaoValor(): type" style="text;html=1;strokeColor=none;fillColor=none;align=left;verticalAlign=top;spacingLeft=4;spacingRight=4;whiteSpace=wrap;overflow=hidden;rotatable=0;points=[[0,0.5],[1,0.5]];portConstraint=eastwest;" vertex="1" parent="v30PAA55jN4DHyw-bM3n-38">
          <mxGeometry y="220" width="200" height="26" as="geometry" />
        </mxCell>
        <mxCell id="v30PAA55jN4DHyw-bM3n-50" value="+ getNaturezaValor(): type" style="text;html=1;strokeColor=none;fillColor=none;align=left;verticalAlign=top;spacingLeft=4;spacingRight=4;whiteSpace=wrap;overflow=hidden;rotatable=0;points=[[0,0.5],[1,0.5]];portConstraint=eastwest;" vertex="1" parent="v30PAA55jN4DHyw-bM3n-38">
          <mxGeometry y="246" width="200" height="26" as="geometry" />
        </mxCell>
        <mxCell id="v30PAA55jN4DHyw-bM3n-49" value="+ getReligiaoValor(): type" style="text;html=1;strokeColor=none;fillColor=none;align=left;verticalAlign=top;spacingLeft=4;spacingRight=4;whiteSpace=wrap;overflow=hidden;rotatable=0;points=[[0,0.5],[1,0.5]];portConstraint=eastwest;" vertex="1" parent="v30PAA55jN4DHyw-bM3n-38">
          <mxGeometry y="272" width="200" height="26" as="geometry" />
        </mxCell>
        <mxCell id="v30PAA55jN4DHyw-bM3n-52" value="Sabedoria" style="swimlane;html=1;fontStyle=1;align=center;verticalAlign=top;childLayout=stackLayout;horizontal=1;startSize=30;horizontalStack=0;resizeParent=1;resizeLast=0;collapsible=1;marginBottom=0;swimlaneFillColor=#ffffff;rounded=0;shadow=0;comic=0;labelBackgroundColor=none;strokeWidth=1;fillColor=none;fontFamily=Verdana;fontSize=12" vertex="1" parent="1">
          <mxGeometry x="-40" y="400" width="200" height="310" as="geometry" />
        </mxCell>
        <mxCell id="v30PAA55jN4DHyw-bM3n-53" value="+ intuicao: boolean" style="text;html=1;strokeColor=none;fillColor=none;align=left;verticalAlign=top;spacingLeft=4;spacingRight=4;whiteSpace=wrap;overflow=hidden;rotatable=0;points=[[0,0.5],[1,0.5]];portConstraint=eastwest;" vertex="1" parent="v30PAA55jN4DHyw-bM3n-52">
          <mxGeometry y="30" width="200" height="26" as="geometry" />
        </mxCell>
        <mxCell id="v30PAA55jN4DHyw-bM3n-54" value="+ lidarAnimais: boolean" style="text;html=1;strokeColor=none;fillColor=none;align=left;verticalAlign=top;spacingLeft=4;spacingRight=4;whiteSpace=wrap;overflow=hidden;rotatable=0;points=[[0,0.5],[1,0.5]];portConstraint=eastwest;" vertex="1" parent="v30PAA55jN4DHyw-bM3n-52">
          <mxGeometry y="56" width="200" height="26" as="geometry" />
        </mxCell>
        <mxCell id="v30PAA55jN4DHyw-bM3n-55" value="+ medicina: boolean" style="text;html=1;strokeColor=none;fillColor=none;align=left;verticalAlign=top;spacingLeft=4;spacingRight=4;whiteSpace=wrap;overflow=hidden;rotatable=0;points=[[0,0.5],[1,0.5]];portConstraint=eastwest;" vertex="1" parent="v30PAA55jN4DHyw-bM3n-52">
          <mxGeometry y="82" width="200" height="26" as="geometry" />
        </mxCell>
        <mxCell id="v30PAA55jN4DHyw-bM3n-56" value="+ percepcao: boolean" style="text;html=1;strokeColor=none;fillColor=none;align=left;verticalAlign=top;spacingLeft=4;spacingRight=4;whiteSpace=wrap;overflow=hidden;rotatable=0;points=[[0,0.5],[1,0.5]];portConstraint=eastwest;" vertex="1" parent="v30PAA55jN4DHyw-bM3n-52">
          <mxGeometry y="108" width="200" height="26" as="geometry" />
        </mxCell>
        <mxCell id="v30PAA55jN4DHyw-bM3n-57" value="+ sobrevivencia: boolean" style="text;html=1;strokeColor=none;fillColor=none;align=left;verticalAlign=top;spacingLeft=4;spacingRight=4;whiteSpace=wrap;overflow=hidden;rotatable=0;points=[[0,0.5],[1,0.5]];portConstraint=eastwest;" vertex="1" parent="v30PAA55jN4DHyw-bM3n-52">
          <mxGeometry y="134" width="200" height="26" as="geometry" />
        </mxCell>
        <mxCell id="v30PAA55jN4DHyw-bM3n-58" value="" style="line;html=1;strokeWidth=1;fillColor=none;align=left;verticalAlign=middle;spacingTop=-1;spacingLeft=3;spacingRight=3;rotatable=0;labelPosition=right;points=[];portConstraint=eastwest;" vertex="1" parent="v30PAA55jN4DHyw-bM3n-52">
          <mxGeometry y="160" width="200" height="8" as="geometry" />
        </mxCell>
        <mxCell id="v30PAA55jN4DHyw-bM3n-59" value="+ getIntuicaoValor(): int" style="text;html=1;strokeColor=none;fillColor=none;align=left;verticalAlign=top;spacingLeft=4;spacingRight=4;whiteSpace=wrap;overflow=hidden;rotatable=0;points=[[0,0.5],[1,0.5]];portConstraint=eastwest;" vertex="1" parent="v30PAA55jN4DHyw-bM3n-52">
          <mxGeometry y="168" width="200" height="26" as="geometry" />
        </mxCell>
        <mxCell id="v30PAA55jN4DHyw-bM3n-60" value="+ getLidarAnimaisValor(): int" style="text;html=1;strokeColor=none;fillColor=none;align=left;verticalAlign=top;spacingLeft=4;spacingRight=4;whiteSpace=wrap;overflow=hidden;rotatable=0;points=[[0,0.5],[1,0.5]];portConstraint=eastwest;" vertex="1" parent="v30PAA55jN4DHyw-bM3n-52">
          <mxGeometry y="194" width="200" height="26" as="geometry" />
        </mxCell>
        <mxCell id="v30PAA55jN4DHyw-bM3n-61" value="+ getMedicinaValor(): type" style="text;html=1;strokeColor=none;fillColor=none;align=left;verticalAlign=top;spacingLeft=4;spacingRight=4;whiteSpace=wrap;overflow=hidden;rotatable=0;points=[[0,0.5],[1,0.5]];portConstraint=eastwest;" vertex="1" parent="v30PAA55jN4DHyw-bM3n-52">
          <mxGeometry y="220" width="200" height="26" as="geometry" />
        </mxCell>
        <mxCell id="v30PAA55jN4DHyw-bM3n-62" value="+ getPercepcaoValor(): type" style="text;html=1;strokeColor=none;fillColor=none;align=left;verticalAlign=top;spacingLeft=4;spacingRight=4;whiteSpace=wrap;overflow=hidden;rotatable=0;points=[[0,0.5],[1,0.5]];portConstraint=eastwest;" vertex="1" parent="v30PAA55jN4DHyw-bM3n-52">
          <mxGeometry y="246" width="200" height="26" as="geometry" />
        </mxCell>
        <mxCell id="v30PAA55jN4DHyw-bM3n-63" value="+ getSobrevivenciaValor(): type" style="text;html=1;strokeColor=none;fillColor=none;align=left;verticalAlign=top;spacingLeft=4;spacingRight=4;whiteSpace=wrap;overflow=hidden;rotatable=0;points=[[0,0.5],[1,0.5]];portConstraint=eastwest;" vertex="1" parent="v30PAA55jN4DHyw-bM3n-52">
          <mxGeometry y="272" width="200" height="26" as="geometry" />
        </mxCell>
        <mxCell id="v30PAA55jN4DHyw-bM3n-64" value="Carisma" style="swimlane;html=1;fontStyle=1;align=center;verticalAlign=top;childLayout=stackLayout;horizontal=1;startSize=30;horizontalStack=0;resizeParent=1;resizeLast=0;collapsible=1;marginBottom=0;swimlaneFillColor=#ffffff;rounded=0;shadow=0;comic=0;labelBackgroundColor=none;strokeWidth=1;fillColor=none;fontFamily=Verdana;fontSize=12" vertex="1" parent="1">
          <mxGeometry x="200" y="400" width="200" height="260" as="geometry" />
        </mxCell>
        <mxCell id="v30PAA55jN4DHyw-bM3n-65" value="+ atuacao: boolean" style="text;html=1;strokeColor=none;fillColor=none;align=left;verticalAlign=top;spacingLeft=4;spacingRight=4;whiteSpace=wrap;overflow=hidden;rotatable=0;points=[[0,0.5],[1,0.5]];portConstraint=eastwest;" vertex="1" parent="v30PAA55jN4DHyw-bM3n-64">
          <mxGeometry y="30" width="200" height="26" as="geometry" />
        </mxCell>
        <mxCell id="v30PAA55jN4DHyw-bM3n-66" value="+ blefar: boolean" style="text;html=1;strokeColor=none;fillColor=none;align=left;verticalAlign=top;spacingLeft=4;spacingRight=4;whiteSpace=wrap;overflow=hidden;rotatable=0;points=[[0,0.5],[1,0.5]];portConstraint=eastwest;" vertex="1" parent="v30PAA55jN4DHyw-bM3n-64">
          <mxGeometry y="56" width="200" height="26" as="geometry" />
        </mxCell>
        <mxCell id="v30PAA55jN4DHyw-bM3n-67" value="+ intimidacao: boolean" style="text;html=1;strokeColor=none;fillColor=none;align=left;verticalAlign=top;spacingLeft=4;spacingRight=4;whiteSpace=wrap;overflow=hidden;rotatable=0;points=[[0,0.5],[1,0.5]];portConstraint=eastwest;" vertex="1" parent="v30PAA55jN4DHyw-bM3n-64">
          <mxGeometry y="82" width="200" height="26" as="geometry" />
        </mxCell>
        <mxCell id="v30PAA55jN4DHyw-bM3n-68" value="+ persuasao: boolean" style="text;html=1;strokeColor=none;fillColor=none;align=left;verticalAlign=top;spacingLeft=4;spacingRight=4;whiteSpace=wrap;overflow=hidden;rotatable=0;points=[[0,0.5],[1,0.5]];portConstraint=eastwest;" vertex="1" parent="v30PAA55jN4DHyw-bM3n-64">
          <mxGeometry y="108" width="200" height="26" as="geometry" />
        </mxCell>
        <mxCell id="v30PAA55jN4DHyw-bM3n-70" value="" style="line;html=1;strokeWidth=1;fillColor=none;align=left;verticalAlign=middle;spacingTop=-1;spacingLeft=3;spacingRight=3;rotatable=0;labelPosition=right;points=[];portConstraint=eastwest;" vertex="1" parent="v30PAA55jN4DHyw-bM3n-64">
          <mxGeometry y="134" width="200" height="8" as="geometry" />
        </mxCell>
        <mxCell id="v30PAA55jN4DHyw-bM3n-71" value="+ getAtuacaoValor(): int" style="text;html=1;strokeColor=none;fillColor=none;align=left;verticalAlign=top;spacingLeft=4;spacingRight=4;whiteSpace=wrap;overflow=hidden;rotatable=0;points=[[0,0.5],[1,0.5]];portConstraint=eastwest;" vertex="1" parent="v30PAA55jN4DHyw-bM3n-64">
          <mxGeometry y="142" width="200" height="26" as="geometry" />
        </mxCell>
        <mxCell id="v30PAA55jN4DHyw-bM3n-72" value="+ getBlefarValor(): int" style="text;html=1;strokeColor=none;fillColor=none;align=left;verticalAlign=top;spacingLeft=4;spacingRight=4;whiteSpace=wrap;overflow=hidden;rotatable=0;points=[[0,0.5],[1,0.5]];portConstraint=eastwest;" vertex="1" parent="v30PAA55jN4DHyw-bM3n-64">
          <mxGeometry y="168" width="200" height="26" as="geometry" />
        </mxCell>
        <mxCell id="v30PAA55jN4DHyw-bM3n-73" value="+ getIntimidacaoValor(): type" style="text;html=1;strokeColor=none;fillColor=none;align=left;verticalAlign=top;spacingLeft=4;spacingRight=4;whiteSpace=wrap;overflow=hidden;rotatable=0;points=[[0,0.5],[1,0.5]];portConstraint=eastwest;" vertex="1" parent="v30PAA55jN4DHyw-bM3n-64">
          <mxGeometry y="194" width="200" height="26" as="geometry" />
        </mxCell>
        <mxCell id="v30PAA55jN4DHyw-bM3n-74" value="+ getPersuasaoValor(): type" style="text;html=1;strokeColor=none;fillColor=none;align=left;verticalAlign=top;spacingLeft=4;spacingRight=4;whiteSpace=wrap;overflow=hidden;rotatable=0;points=[[0,0.5],[1,0.5]];portConstraint=eastwest;" vertex="1" parent="v30PAA55jN4DHyw-bM3n-64">
          <mxGeometry y="220" width="200" height="26" as="geometry" />
        </mxCell>
        <mxCell id="v30PAA55jN4DHyw-bM3n-76" value="Extends" style="endArrow=block;endSize=16;endFill=0;html=1;rounded=0;exitX=0.5;exitY=0;exitDx=0;exitDy=0;entryX=0;entryY=0.5;entryDx=0;entryDy=0;" edge="1" parent="1" source="78961159f06e98e8-82" target="v30PAA55jN4DHyw-bM3n-13">
          <mxGeometry width="160" relative="1" as="geometry">
            <mxPoint x="-360" y="310" as="sourcePoint" />
            <mxPoint x="-200" y="310" as="targetPoint" />
          </mxGeometry>
        </mxCell>
        <mxCell id="v30PAA55jN4DHyw-bM3n-77" value="Extends" style="endArrow=block;endSize=16;endFill=0;html=1;rounded=0;exitX=0.5;exitY=0;exitDx=0;exitDy=0;entryX=0.25;entryY=1;entryDx=0;entryDy=0;" edge="1" parent="1" source="v30PAA55jN4DHyw-bM3n-3" target="78961159f06e98e8-43">
          <mxGeometry width="160" relative="1" as="geometry">
            <mxPoint x="-320" y="300" as="sourcePoint" />
            <mxPoint x="-290" y="200" as="targetPoint" />
          </mxGeometry>
        </mxCell>
        <mxCell id="v30PAA55jN4DHyw-bM3n-78" value="Extends" style="endArrow=block;endSize=16;endFill=0;html=1;rounded=0;exitX=0.5;exitY=0;exitDx=0;exitDy=0;entryX=0.75;entryY=1;entryDx=0;entryDy=0;" edge="1" parent="1" source="v30PAA55jN4DHyw-bM3n-38" target="78961159f06e98e8-43">
          <mxGeometry width="160" relative="1" as="geometry">
            <mxPoint x="-370" y="330" as="sourcePoint" />
            <mxPoint x="-220" y="300" as="targetPoint" />
          </mxGeometry>
        </mxCell>
        <mxCell id="v30PAA55jN4DHyw-bM3n-79" value="Extends" style="endArrow=block;endSize=16;endFill=0;html=1;rounded=0;exitX=0.5;exitY=0;exitDx=0;exitDy=0;entryX=1;entryY=0.5;entryDx=0;entryDy=0;" edge="1" parent="1" source="v30PAA55jN4DHyw-bM3n-64" target="v30PAA55jN4DHyw-bM3n-13">
          <mxGeometry width="160" relative="1" as="geometry">
            <mxPoint x="-180" y="740" as="sourcePoint" />
            <mxPoint x="-20" y="740" as="targetPoint" />
          </mxGeometry>
        </mxCell>
        <mxCell id="v30PAA55jN4DHyw-bM3n-80" value="Extends" style="endArrow=block;endSize=16;endFill=0;html=1;rounded=0;exitX=0.5;exitY=0;exitDx=0;exitDy=0;entryX=0;entryY=0.5;entryDx=0;entryDy=0;" edge="1" parent="1" source="v30PAA55jN4DHyw-bM3n-14" target="78961159f06e98e8-52">
          <mxGeometry width="160" relative="1" as="geometry">
            <mxPoint x="-30" y="270" as="sourcePoint" />
            <mxPoint x="130" y="270" as="targetPoint" />
          </mxGeometry>
        </mxCell>
        <mxCell id="v30PAA55jN4DHyw-bM3n-81" value="Extends" style="endArrow=block;endSize=16;endFill=0;html=1;rounded=0;exitX=0.5;exitY=0;exitDx=0;exitDy=0;entryX=1;entryY=0.5;entryDx=0;entryDy=0;" edge="1" parent="1" source="v30PAA55jN4DHyw-bM3n-52" target="78961159f06e98e8-52">
          <mxGeometry width="160" relative="1" as="geometry">
            <mxPoint x="-160" y="760" as="sourcePoint" />
            <mxPoint y="760" as="targetPoint" />
          </mxGeometry>
        </mxCell>
      </root>
    </mxGraphModel>
  </diagram>
</mxfile>
